<?xml version="1.0" standalone="no"?><!DOCTYPE svg PUBLIC "-//W3C//DTD SVG 1.1//EN" "http://www.w3.org/Graphics/SVG/1.1/DTD/svg11.dtd"><svg t="1727255324851" class="icon" viewBox="0 0 1245 1024" version="1.1" xmlns="http://www.w3.org/2000/svg" p-id="3329" xmlns:xlink="http://www.w3.org/1999/xlink" width="243.1640625" height="200"><path d="M533.91546406 753.88659805a614.04123691 614.04123691 0 0 0-95.19587666-7.49690772c-131.95670098 0-225.7051544 7.97010292-225.70515439 7.97010381V134.43608252S306.76288643 66.43505146 438.70103106 66.43505146c67.38866016 0 124.8123709 20.39381455 164.87628837 40.3608252 40.15670098-18.83505146 102.30309317-40.36082432 176.54845343-40.3608252 131.93814463 0 225.69587666 78.19793789 225.69587665 78.19793789V754.35051553s-93.74845342-7.97010292-225.69587665-7.97010293c-35.38762911 0-68.02886602 3.15463887-96.84742237 7.75670097v32.79896895a22.36082432 22.36082432 0 0 1-22.36082432 22.36082432H556.27628838a22.36082432 22.36082432 0 0 1-22.36082432-22.36082432V753.88659805z m-247.63917568-70.1536087s72.6123709-5.23298935 151.32989707-5.23298935c78.73608252 0 134.66597959 24.81030967 134.66597958 24.81030967v-516.34020675s-55.92989707-37.2804126-134.65670097-37.28041259-151.33917568 29.95979414-151.33917568 29.95979414v504.08350488z m353.82989707 19.57732032s55.93917568-24.81030967 134.66597959-24.81030967 151.32989707 5.23298935 151.32989707 5.23298935v-496.76288642s-72.60309316-37.2804126-151.32989707-37.2804126-134.66597959 29.95979414-134.66597959 29.95979414v523.6608252zM139.32577285 819.67010292l356.84536113 1.82783497v57.01546406H722.71133984v-57.01546406h358.62680479V160.81443301s0-37.76288643 37.75360781-37.76288643 37.75360781 37.76288643 37.7536087 37.76288642v697.51855635s-6.13298935 35.90721651-36.62164952 38.67216505c-30.49793789 2.75566992-359.33195918 0-359.33195918 0v57.44226797H458.46391748v-57.44226797H100.66288643C78.97938154 897.014433 62 880.03505146 62 858.34226797v-696.61855635c0-21.68350488 16.97938154-38.65360781 38.66288643-38.6536087 21.69278349 0 38.66288643 16.97938154 38.66288642 38.66288643V819.67010292z" p-id="3330"></path></svg>