<?xml version="1.0" standalone="no"?><!DOCTYPE svg PUBLIC "-//W3C//DTD SVG 1.1//EN" "http://www.w3.org/Graphics/SVG/1.1/DTD/svg11.dtd"><svg t="1727256104783" class="icon" viewBox="0 0 1024 1024" version="1.1" xmlns="http://www.w3.org/2000/svg" p-id="2399" xmlns:xlink="http://www.w3.org/1999/xlink" width="200" height="200"><path d="M512 315.9c-108.3 0-196.1 87.8-196.1 196.1S403.7 708.1 512 708.1 708.1 620.3 708.1 512 620.3 315.9 512 315.9z m93.41 289.51A132.11 132.11 0 1 1 644.1 512a131.25 131.25 0 0 1-38.69 93.41z" p-id="2400"></path><path d="M851.37 512c0-7.13-0.23-14.33-0.69-21.54l68.83-62.15-4.73-18.69a413.07 413.07 0 0 0-45.62-110L859.29 283l-92.59 4.73a340.49 340.49 0 0 0-30.45-30.45l4.75-92.57-16.56-9.87a413.07 413.07 0 0 0-110-45.62l-18.69-4.74-62.15 68.84a336.56 336.56 0 0 0-43.08 0l-62.15-68.84-18.69 4.74a413.07 413.07 0 0 0-110 45.62L283 164.71l4.73 92.59a341.81 341.81 0 0 0-30.45 30.45L164.71 283l-9.87 16.56a413.07 413.07 0 0 0-45.62 110l-4.74 18.69 68.84 62.15c-0.46 7.21-0.69 14.41-0.69 21.54s0.23 14.33 0.69 21.54l-68.84 62.15 4.74 18.69a413.07 413.07 0 0 0 45.62 110l9.87 16.68 92.59-4.73a340.49 340.49 0 0 0 30.45 30.45L283 859.29l16.56 9.87a413.07 413.07 0 0 0 110 45.62l18.69 4.73 62.15-68.83a336.56 336.56 0 0 0 43.08 0l62.15 68.83 18.69-4.73a413.07 413.07 0 0 0 110-45.62l16.68-9.87-4.73-92.59a341.81 341.81 0 0 0 30.45-30.45l92.57 4.75 9.87-16.56a413.07 413.07 0 0 0 45.62-110l4.73-18.69-68.83-62.15c0.46-7.27 0.69-14.47 0.69-21.6z m-65.75-31.06a276.51 276.51 0 0 1 0 62.12l-1.83 16.32L847.57 617a349.88 349.88 0 0 1-24.1 58.1l-85.81-4.38-10.25 12.85a277.6 277.6 0 0 1-43.88 43.88l-12.85 10.25 4.38 85.81a349.88 349.88 0 0 1-58.1 24.1l-57.58-63.78-16.32 1.83a276.51 276.51 0 0 1-62.12 0l-16.32-1.83L407 847.57a349.88 349.88 0 0 1-58.1-24.1l4.38-85.81-12.85-10.25a277.66 277.66 0 0 1-43.89-43.88l-10.24-12.85-85.81 4.38A349 349 0 0 1 176.44 617l63.77-57.58-1.83-16.32a276.51 276.51 0 0 1 0-62.12l1.83-16.32L176.43 407a349.88 349.88 0 0 1 24.1-58.1l85.81 4.38 10.24-12.85a278.57 278.57 0 0 1 43.89-43.89l12.85-10.24-4.38-85.81a349.88 349.88 0 0 1 58.1-24.1l57.58 63.78 16.32-1.83a276.51 276.51 0 0 1 62.12 0l16.32 1.83L617 176.44a349 349 0 0 1 58.1 24.09l-4.38 85.81 12.85 10.24a277.66 277.66 0 0 1 43.88 43.89l10.25 12.85 85.81-4.38a349.88 349.88 0 0 1 24.1 58.1l-63.78 57.58z" p-id="2401"></path></svg>