<?xml version="1.0" standalone="no"?><!DOCTYPE svg PUBLIC "-//W3C//DTD SVG 1.1//EN" "http://www.w3.org/Graphics/SVG/1.1/DTD/svg11.dtd"><svg t="1727255998019" class="icon" viewBox="0 0 1024 1024" version="1.1" xmlns="http://www.w3.org/2000/svg" p-id="16003" xmlns:xlink="http://www.w3.org/1999/xlink" width="200" height="200"><path d="M512 1024c-22.016 0-43.52-8.192-60.416-25.088L25.088 572.416C8.704 556.032 0 535.04 0 512s8.704-44.032 25.088-60.416L451.584 25.088C467.968 8.704 489.472 0 512 0s44.032 8.704 60.416 25.088l426.496 426.496c15.872 15.872 25.088 37.376 25.088 60.416s-8.704 44.032-25.088 60.416l-426.496 426.496c-16.896 16.896-38.4 25.088-60.416 25.088z m0-960c-5.632 0-10.752 2.048-14.848 6.144L70.144 497.152c-8.192 8.192-8.192 22.016 0 30.208L496.64 953.856c8.192 8.192 22.016 8.192 30.208 0l426.496-426.496c8.192-8.192 8.192-22.016 0-30.208l-426.496-426.496c-4.096-4.608-9.216-6.656-14.848-6.656z" fill="#333333" p-id="16004"></path><path d="M725.504 544.768H298.496c-17.92 0-32.768-14.848-32.768-32.768s14.848-32.768 32.768-32.768h426.496c17.92 0 32.768 14.848 32.768 32.768s-14.336 32.768-32.256 32.768z" fill="#333333" p-id="16005"></path><path d="M512 755.712c-16.896 0-30.208-13.312-30.208-30.208V298.496c0-16.896 13.312-30.208 30.208-30.208s30.208 13.312 30.208 30.208v426.496c0 16.896-13.312 30.72-30.208 30.72z" fill="#333333" p-id="16006"></path></svg>